<svg id="Layer_1" data-name="Layer 1" xmlns="http://www.w3.org/2000/svg" viewBox="0 0 223.13 223.13"><defs><style>.cls-1{fill:#0200ff;}</style></defs><title>talk_small</title><path class="cls-1" d="M215,223.13l-104.64,0C49.49,222.43,0,172.4,0,111.56a111.57,111.57,0,1,1,195.3,73.69ZM111.56,10.63A101,101,0,0,0,10.63,111.56c0,55,44.77,100.31,99.81,100.91l87.07,0-15.1-29,2.6-2.75A100.91,100.91,0,0,0,111.56,10.63Z"/><path class="cls-1" d="M96.91,79.69h-36V61.35h94.35V79.69H119.14v98.06H96.91Z"/><path class="cls-1" d="M147.36,153.41a12.8,12.8,0,0,1,12.7,12.88,12.7,12.7,0,0,1-25.4,0A12.8,12.8,0,0,1,147.36,153.41Z"/></svg>