<svg id="Layer_1" data-name="Layer 1" xmlns="http://www.w3.org/2000/svg" viewBox="0 0 593.67 212.5"><defs><style>.cls-1{fill:#0200ff;}</style></defs><title>talk_large</title><path class="cls-1" d="M499.76,10.63A83.38,83.38,0,0,1,583,93.91v24.68a82.46,82.46,0,0,1-17.27,50.75l-4.14,5.38,3.13,6,11,21.15H93.91a83.38,83.38,0,0,1-83.28-83.29V93.91A83.38,83.38,0,0,1,93.91,10.63H499.76m0-10.63H93.91A93.92,93.92,0,0,0,0,93.91v24.68A93.91,93.91,0,0,0,93.91,212.5H593.29l-19.1-36.67a93.52,93.52,0,0,0,19.48-57.24V93.91A93.92,93.92,0,0,0,499.76,0Z"/><path class="cls-1" d="M105.23,65.59H66.73V46h101V65.59H129V170.52H105.23Z"/><path class="cls-1" d="M240.72,142.59H193.16l-9.43,27.93H159.19L204.3,46h25.29l44.72,124.55H250.16Zm-6.23-18.31L220.9,84.65c-1.32-3.77-2.64-9.06-3.77-13.77h-.57a123.91,123.91,0,0,1-3.77,14l-13.4,39.44Z"/><path class="cls-1" d="M371.49,150.89v19.63h-81.9V46h23.78V150.89Z"/><path class="cls-1" d="M425.27,120.13H411.49v50.39H387.72V46h23.77v55.1H424L461.69,46h24.72l-44.72,63.78,45.1,60.58h-25.1Z"/><path class="cls-1" d="M509.24,144.48a13.69,13.69,0,0,1,13.59,13.77,13.59,13.59,0,0,1-27.17,0A13.69,13.69,0,0,1,509.24,144.48Z"/></svg>